<svg xmlns="http://www.w3.org/2000/svg" viewBox="0 0 730.61 542.16"><defs><style>.a{fill:#e45447;}</style></defs><title>svg </title><path class="a" d="M315.22,245.45h0a6.08,6.08,0,0,1,6,7.14l-4.09,23.15c-1.08,6,1.3,9.47,7.16,9.47s9.62-3.47,10.63-9.47l4.46-25.27a6.08,6.08,0,0,1,6-5h0a6.08,6.08,0,0,1,6,7.14l-4.09,23.15c-2.53,14.25-13.23,21-25.16,21-11.71,0-19.81-6.94-17.28-21l4.4-25.25A6.08,6.08,0,0,1,315.22,245.45Z"/><path class="a" d="M388.87,245.45h0a6.08,6.08,0,0,1,6,7.14L390.05,280c-2,10.92-9.62,16.7-19.67,16.7-7.61,0-13-3.25-14.53-9.46a6.49,6.49,0,0,1,6.3-8h0a6.45,6.45,0,0,1,6,4.16c.57,1.53,1.88,2.28,3.78,2.28,3,0,5-1.88,5.71-5.64l5.19-29.53A6.08,6.08,0,0,1,388.87,245.45Z"/><path class="a" d="M433,285.25H414l-4.39,10.38a5.69,5.69,0,0,1-5,3.07h0a5.67,5.67,0,0,1-5-8.36l21.35-41.61a10,10,0,0,1,8.82-5.27h0a10,10,0,0,1,9.85,8.2l6.48,39.21a6.37,6.37,0,0,1-6.26,7.53h0a6.36,6.36,0,0,1-6.29-5.36Zm-4.42-28.19-9.68,18.8H431.5Z"/><path class="a" d="M507.44,252.85,501,289.49a8.43,8.43,0,0,1-8.3,7h0a8.43,8.43,0,0,1-7.6-4.77l-12.81-26.54-4.67,26.28a6.1,6.1,0,0,1-6,5h0a6.1,6.1,0,0,1-6-7.15l6.48-36.65a8.43,8.43,0,0,1,8.29-7h0a8.44,8.44,0,0,1,7.6,4.78l12.81,26.67,4.68-26.42a6.08,6.08,0,0,1,6-5h0A6.09,6.09,0,0,1,507.44,252.85Z"/><path class="a" d="M251.83,230.61l-16,83.44a6.43,6.43,0,0,1-6.34,5.19h0a6.44,6.44,0,0,1-6.29-7.68l15.94-83.44a6.44,6.44,0,0,1,6.32-5.2h.06A6.44,6.44,0,0,1,251.83,230.61Z"/><path class="a" d="M248.2,278.47h0a6.63,6.63,0,0,1,3.09-4.33L279,257.66l-19.71-9.88a6.67,6.67,0,0,1-3.58-7.18h0a6.69,6.69,0,0,1,9.6-4.75L289.24,248a10.74,10.74,0,0,1,5.87,9.24h0a10.74,10.74,0,0,1-5.29,9.58L258,285.5A6.6,6.6,0,0,1,248.2,278.47Z"/></svg>